<mxfile host="Electron" agent="Mozilla/5.0 (Windows NT 10.0; Win64; x64) AppleWebKit/537.36 (KHTML, like Gecko) draw.io/24.7.17 Chrome/128.0.6613.36 Electron/32.0.1 Safari/537.36" version="24.7.17">
  <diagram name="Page-1" id="V3lgIP1YrBqnfO19GKNm">
    <mxGraphModel dx="3774" dy="1197" grid="1" gridSize="10" guides="1" tooltips="1" connect="1" arrows="1" fold="1" page="1" pageScale="1" pageWidth="850" pageHeight="1100" math="0" shadow="0">
      <root>
        <mxCell id="0" />
        <mxCell id="1" parent="0" />
        <mxCell id="xD4mwxEPBQV5QEoEoYFG-1" value="Tag" style="rounded=1;arcSize=10;whiteSpace=wrap;html=1;align=center;" vertex="1" parent="1">
          <mxGeometry x="-1637.5" y="500" width="100" height="40" as="geometry" />
        </mxCell>
        <mxCell id="xD4mwxEPBQV5QEoEoYFG-2" value="TagItem" style="shape=ext;margin=3;double=1;whiteSpace=wrap;html=1;align=center;collapsible=1;container=1;" vertex="1" collapsed="1" parent="1">
          <mxGeometry x="-1340" y="505" width="80" height="30" as="geometry">
            <mxRectangle x="-1350" y="330" width="200" height="100" as="alternateBounds" />
          </mxGeometry>
        </mxCell>
        <mxCell id="xD4mwxEPBQV5QEoEoYFG-3" value="" style="shape=table;startSize=0;container=1;collapsible=1;childLayout=tableLayout;fixedRows=1;rowLines=0;fontStyle=0;align=center;resizeLast=1;strokeColor=none;fillColor=none;collapsible=0;" vertex="1" parent="xD4mwxEPBQV5QEoEoYFG-2">
          <mxGeometry x="10" y="20" width="180" height="30" as="geometry" />
        </mxCell>
        <mxCell id="xD4mwxEPBQV5QEoEoYFG-4" value="" style="shape=tableRow;horizontal=0;startSize=0;swimlaneHead=0;swimlaneBody=0;fillColor=none;collapsible=0;dropTarget=0;points=[[0,0.5],[1,0.5]];portConstraint=eastwest;top=0;left=0;right=0;bottom=0;" vertex="1" parent="xD4mwxEPBQV5QEoEoYFG-3">
          <mxGeometry width="180" height="30" as="geometry" />
        </mxCell>
        <mxCell id="xD4mwxEPBQV5QEoEoYFG-5" value="WK" style="shape=partialRectangle;connectable=0;fillColor=none;top=0;left=0;bottom=0;right=0;fontStyle=0;overflow=hidden;whiteSpace=wrap;html=1;" vertex="1" parent="xD4mwxEPBQV5QEoEoYFG-4">
          <mxGeometry width="30" height="30" as="geometry">
            <mxRectangle width="30" height="30" as="alternateBounds" />
          </mxGeometry>
        </mxCell>
        <mxCell id="xD4mwxEPBQV5QEoEoYFG-6" value="CourseId Or BlogId" style="shape=partialRectangle;connectable=0;fillColor=none;top=0;left=0;bottom=0;right=0;align=left;spacingLeft=6;fontStyle=0;overflow=hidden;whiteSpace=wrap;html=1;" vertex="1" parent="xD4mwxEPBQV5QEoEoYFG-4">
          <mxGeometry x="30" width="150" height="30" as="geometry">
            <mxRectangle width="150" height="30" as="alternateBounds" />
          </mxGeometry>
        </mxCell>
        <mxCell id="xD4mwxEPBQV5QEoEoYFG-7" value="Tagged" style="shape=rhombus;perimeter=rhombusPerimeter;whiteSpace=wrap;html=1;align=center;" vertex="1" parent="1">
          <mxGeometry x="-1492.5" y="490" width="85" height="60" as="geometry" />
        </mxCell>
        <mxCell id="xD4mwxEPBQV5QEoEoYFG-8" value="" style="endArrow=none;html=1;rounded=0;" edge="1" parent="1" source="xD4mwxEPBQV5QEoEoYFG-2" target="xD4mwxEPBQV5QEoEoYFG-7">
          <mxGeometry relative="1" as="geometry">
            <mxPoint x="-1510" y="590" as="sourcePoint" />
            <mxPoint x="-1350" y="590" as="targetPoint" />
          </mxGeometry>
        </mxCell>
        <mxCell id="xD4mwxEPBQV5QEoEoYFG-9" value="N" style="resizable=0;html=1;whiteSpace=wrap;align=right;verticalAlign=bottom;" connectable="0" vertex="1" parent="xD4mwxEPBQV5QEoEoYFG-8">
          <mxGeometry x="1" relative="1" as="geometry">
            <mxPoint x="9" as="offset" />
          </mxGeometry>
        </mxCell>
        <mxCell id="xD4mwxEPBQV5QEoEoYFG-10" value="" style="endArrow=none;html=1;rounded=0;" edge="1" parent="1" source="xD4mwxEPBQV5QEoEoYFG-1" target="xD4mwxEPBQV5QEoEoYFG-7">
          <mxGeometry relative="1" as="geometry">
            <mxPoint x="-1610" y="570" as="sourcePoint" />
            <mxPoint x="-1450" y="570" as="targetPoint" />
          </mxGeometry>
        </mxCell>
        <mxCell id="xD4mwxEPBQV5QEoEoYFG-11" value="1" style="resizable=0;html=1;whiteSpace=wrap;align=right;verticalAlign=bottom;" connectable="0" vertex="1" parent="xD4mwxEPBQV5QEoEoYFG-10">
          <mxGeometry x="1" relative="1" as="geometry" />
        </mxCell>
        <mxCell id="xD4mwxEPBQV5QEoEoYFG-12" value="" style="group" vertex="1" connectable="0" parent="1">
          <mxGeometry x="-1250" y="488" width="110" height="70" as="geometry" />
        </mxCell>
        <mxCell id="xD4mwxEPBQV5QEoEoYFG-13" value="&lt;font style=&quot;font-size: 6px;&quot;&gt;TagItem&lt;/font&gt;" style="rounded=1;arcSize=10;whiteSpace=wrap;html=1;align=center;" vertex="1" parent="xD4mwxEPBQV5QEoEoYFG-12">
          <mxGeometry x="33.026153846153846" y="55.26315789473684" width="42.30769230769231" height="14.73684210526316" as="geometry" />
        </mxCell>
        <mxCell id="xD4mwxEPBQV5QEoEoYFG-14" value="&lt;font style=&quot;font-size: 6px;&quot;&gt;Course&lt;/font&gt;" style="whiteSpace=wrap;html=1;align=center;" vertex="1" parent="xD4mwxEPBQV5QEoEoYFG-12">
          <mxGeometry width="42.30769230769231" height="14.73684210526316" as="geometry" />
        </mxCell>
        <mxCell id="xD4mwxEPBQV5QEoEoYFG-15" value="&lt;font style=&quot;font-size: 6px;&quot;&gt;Blog&lt;/font&gt;" style="whiteSpace=wrap;html=1;align=center;" vertex="1" parent="xD4mwxEPBQV5QEoEoYFG-12">
          <mxGeometry x="67.6923076923077" width="42.30769230769231" height="14.73684210526316" as="geometry" />
        </mxCell>
        <mxCell id="xD4mwxEPBQV5QEoEoYFG-16" value="&lt;font style=&quot;font-size: 6px;&quot;&gt;U&lt;/font&gt;" style="ellipse;whiteSpace=wrap;html=1;aspect=fixed;" vertex="1" parent="xD4mwxEPBQV5QEoEoYFG-12">
          <mxGeometry x="48.65384615384615" y="25.789473684210527" width="11.052631578947368" height="11.052631578947368" as="geometry" />
        </mxCell>
        <mxCell id="xD4mwxEPBQV5QEoEoYFG-17" value="" style="endArrow=none;html=1;rounded=0;" edge="1" parent="xD4mwxEPBQV5QEoEoYFG-12" source="xD4mwxEPBQV5QEoEoYFG-16" target="xD4mwxEPBQV5QEoEoYFG-15">
          <mxGeometry relative="1" as="geometry">
            <mxPoint x="8.461538461538462" y="29.47368421052632" as="sourcePoint" />
            <mxPoint x="76.15384615384616" y="29.47368421052632" as="targetPoint" />
          </mxGeometry>
        </mxCell>
        <mxCell id="xD4mwxEPBQV5QEoEoYFG-18" value="" style="endArrow=none;html=1;rounded=0;" edge="1" parent="xD4mwxEPBQV5QEoEoYFG-12" source="xD4mwxEPBQV5QEoEoYFG-16" target="xD4mwxEPBQV5QEoEoYFG-14">
          <mxGeometry relative="1" as="geometry">
            <mxPoint x="64.3076923076923" y="31.684210526315788" as="sourcePoint" />
            <mxPoint x="82.5" y="18.42105263157895" as="targetPoint" />
          </mxGeometry>
        </mxCell>
        <mxCell id="xD4mwxEPBQV5QEoEoYFG-19" value="" style="endArrow=none;html=1;rounded=0;" edge="1" parent="xD4mwxEPBQV5QEoEoYFG-12" source="xD4mwxEPBQV5QEoEoYFG-21" target="xD4mwxEPBQV5QEoEoYFG-16">
          <mxGeometry relative="1" as="geometry">
            <mxPoint y="47.89473684210526" as="sourcePoint" />
            <mxPoint x="67.6923076923077" y="47.89473684210526" as="targetPoint" />
          </mxGeometry>
        </mxCell>
        <mxCell id="xD4mwxEPBQV5QEoEoYFG-20" value="" style="endArrow=none;html=1;rounded=0;" edge="1" parent="xD4mwxEPBQV5QEoEoYFG-12" source="xD4mwxEPBQV5QEoEoYFG-13" target="xD4mwxEPBQV5QEoEoYFG-21">
          <mxGeometry relative="1" as="geometry">
            <mxPoint x="55.00000000000001" y="55.26315789473684" as="sourcePoint" />
            <mxPoint x="55.00000000000001" y="36.8421052631579" as="targetPoint" />
          </mxGeometry>
        </mxCell>
        <mxCell id="xD4mwxEPBQV5QEoEoYFG-21" value="" style="shape=requiredInterface;html=1;verticalLabelPosition=bottom;sketch=0;rotation=90;" vertex="1" parent="xD4mwxEPBQV5QEoEoYFG-12">
          <mxGeometry x="53.15" y="40.26" width="4.23" height="7.89" as="geometry" />
        </mxCell>
      </root>
    </mxGraphModel>
  </diagram>
</mxfile>
